<svg width="31" height="24" viewBox="0 0 31 24" fill="none" xmlns="http://www.w3.org/2000/svg">
<path fill-rule="evenodd" clip-rule="evenodd" d="M1.72222 0C1.26546 0 0.827406 0.180612 0.504427 0.502103C0.181448 0.823594 0 1.25963 0 1.71429C0 2.16894 0.181448 2.60498 0.504427 2.92647C0.827406 3.24796 1.26546 3.42857 1.72222 3.42857H29.2778C29.7345 3.42857 30.1726 3.24796 30.4956 2.92647C30.8186 2.60498 31 2.16894 31 1.71429C31 1.25963 30.8186 0.823594 30.4956 0.502103C30.1726 0.180612 29.7345 0 29.2778 0H1.72222ZM0 12C0 11.5453 0.181448 11.1093 0.504427 10.7878C0.827406 10.4663 1.26546 10.2857 1.72222 10.2857H29.2778C29.7345 10.2857 30.1726 10.4663 30.4956 10.7878C30.8186 11.1093 31 11.5453 31 12C31 12.4547 30.8186 12.8907 30.4956 13.2122C30.1726 13.5337 29.7345 13.7143 29.2778 13.7143H1.72222C1.26546 13.7143 0.827406 13.5337 0.504427 13.2122C0.181448 12.8907 0 12.4547 0 12ZM0 22.2857C0 21.8311 0.181448 21.395 0.504427 21.0735C0.827406 20.752 1.26546 20.5714 1.72222 20.5714H29.2778C29.7345 20.5714 30.1726 20.752 30.4956 21.0735C30.8186 21.395 31 21.8311 31 22.2857C31 22.7404 30.8186 23.1764 30.4956 23.4979C30.1726 23.8194 29.7345 24 29.2778 24H1.72222C1.26546 24 0.827406 23.8194 0.504427 23.4979C0.181448 23.1764 0 22.7404 0 22.2857Z" fill="white"/>
</svg>
