<svg width="54" height="55" viewBox="0 0 54 55" fill="none" xmlns="http://www.w3.org/2000/svg">
<path fill-rule="evenodd" clip-rule="evenodd" d="M4.5 14.0825C4.5 11.6956 5.44821 9.40639 7.13604 7.71856C8.82387 6.03073 11.1131 5.08252 13.5 5.08252H40.5C42.8869 5.08252 45.1761 6.03073 46.864 7.71856C48.5518 9.40639 49.5 11.6956 49.5 14.0825V41.0825C49.5 43.4695 48.5518 45.7587 46.864 47.4465C45.1761 49.1343 42.8869 50.0825 40.5 50.0825H13.5C11.1131 50.0825 8.82387 49.1343 7.13604 47.4465C5.44821 45.7587 4.5 43.4695 4.5 41.0825V14.0825ZM13.5 9.58252C12.3065 9.58252 11.1619 10.0566 10.318 10.9005C9.47411 11.7445 9 12.889 9 14.0825V41.0825C9 42.276 9.47411 43.4206 10.318 44.2645C11.1619 45.1084 12.3065 45.5825 13.5 45.5825H27V29.8325H24.75C24.1533 29.8325 23.581 29.5955 23.159 29.1735C22.7371 28.7516 22.5 28.1793 22.5 27.5825C22.5 26.9858 22.7371 26.4135 23.159 25.9915C23.581 25.5696 24.1533 25.3325 24.75 25.3325H27V21.9575C27 19.8689 27.8297 17.8659 29.3065 16.3891C30.7834 14.9122 32.7864 14.0825 34.875 14.0825H36.225C36.8217 14.0825 37.394 14.3196 37.816 14.7415C38.2379 15.1635 38.475 15.7358 38.475 16.3325C38.475 16.9293 38.2379 17.5016 37.816 17.9235C37.394 18.3455 36.8217 18.5825 36.225 18.5825H34.875C34.4318 18.5825 33.9929 18.6698 33.5834 18.8394C33.174 19.009 32.8019 19.2576 32.4885 19.571C32.1751 19.8844 31.9265 20.2565 31.7569 20.666C31.5873 21.0754 31.5 21.5143 31.5 21.9575V25.3325H36.225C36.8217 25.3325 37.394 25.5696 37.816 25.9915C38.2379 26.4135 38.475 26.9858 38.475 27.5825C38.475 28.1793 38.2379 28.7516 37.816 29.1735C37.394 29.5955 36.8217 29.8325 36.225 29.8325H31.5V45.5825H40.5C41.6935 45.5825 42.8381 45.1084 43.682 44.2645C44.5259 43.4206 45 42.276 45 41.0825V14.0825C45 12.889 44.5259 11.7445 43.682 10.9005C42.8381 10.0566 41.6935 9.58252 40.5 9.58252H13.5Z" fill="white"/>
</svg>
