<svg width="53" height="55" viewBox="0 0 53 55" fill="none" xmlns="http://www.w3.org/2000/svg">
<path fill-rule="evenodd" clip-rule="evenodd" d="M4.41699 14.0825C4.41699 11.6956 5.34764 9.40639 7.00422 7.71856C8.66079 6.03073 10.9076 5.08252 13.2503 5.08252H39.7503C42.0931 5.08252 44.3399 6.03073 45.9964 7.71856C47.653 9.40639 48.5837 11.6956 48.5837 14.0825V41.0825C48.5837 43.4695 47.653 45.7587 45.9964 47.4465C44.3399 49.1343 42.0931 50.0825 39.7503 50.0825H13.2503C10.9076 50.0825 8.66079 49.1343 7.00422 47.4465C5.34764 45.7587 4.41699 43.4695 4.41699 41.0825V14.0825ZM13.2503 9.58252C12.079 9.58252 10.9556 10.0566 10.1273 10.9005C9.29898 11.7445 8.83366 12.889 8.83366 14.0825V41.0825C8.83366 42.276 9.29898 43.4206 10.1273 44.2645C10.9556 45.1084 12.079 45.5825 13.2503 45.5825H39.7503C40.9217 45.5825 42.0451 45.1084 42.8734 44.2645C43.7017 43.4206 44.167 42.276 44.167 41.0825V14.0825C44.167 12.889 43.7017 11.7445 42.8734 10.9005C42.0451 10.0566 40.9217 9.58252 39.7503 9.58252H13.2503ZM26.5003 20.8325C24.7433 20.8325 23.0582 21.5437 21.8157 22.8095C20.5733 24.0754 19.8753 25.7923 19.8753 27.5825C19.8753 29.3727 20.5733 31.0896 21.8157 32.3555C23.0582 33.6214 24.7433 34.3325 26.5003 34.3325C28.2574 34.3325 29.9425 33.6214 31.1849 32.3555C32.4273 31.0896 33.1253 29.3727 33.1253 27.5825C33.1253 25.7923 32.4273 24.0754 31.1849 22.8095C29.9425 21.5437 28.2574 20.8325 26.5003 20.8325ZM15.4587 27.5825C15.4587 24.5988 16.622 21.7374 18.6927 19.6276C20.7634 17.5178 23.5719 16.3325 26.5003 16.3325C29.4288 16.3325 32.2372 17.5178 34.308 19.6276C36.3787 21.7374 37.542 24.5988 37.542 27.5825C37.542 30.5662 36.3787 33.4277 34.308 35.5375C32.2372 37.6473 29.4288 38.8325 26.5003 38.8325C23.5719 38.8325 20.7634 37.6473 18.6927 35.5375C16.622 33.4277 15.4587 30.5662 15.4587 27.5825V27.5825ZM38.6462 18.5825C39.5247 18.5825 40.3672 18.2269 40.9884 17.594C41.6097 16.9611 41.9587 16.1026 41.9587 15.2075C41.9587 14.3124 41.6097 13.454 40.9884 12.821C40.3672 12.1881 39.5247 11.8325 38.6462 11.8325C37.7676 11.8325 36.9251 12.1881 36.3039 12.821C35.6827 13.454 35.3337 14.3124 35.3337 15.2075C35.3337 16.1026 35.6827 16.9611 36.3039 17.594C36.9251 18.2269 37.7676 18.5825 38.6462 18.5825Z" fill="white"/>
</svg>
