<svg width="34" height="34" viewBox="0 0 34 34" fill="none" xmlns="http://www.w3.org/2000/svg">
<path fill-rule="evenodd" clip-rule="evenodd" d="M34 17C34 26.3889 26.3889 34 17 34C7.61114 34 0 26.3889 0 17C0 7.61114 7.61114 0 17 0C26.3889 0 34 7.61114 34 17ZM26.8794 7.41848C25.5979 6.09388 24.0626 5.04104 22.3652 4.32281C20.6678 3.60458 18.8431 3.23567 17 3.2381C14.9757 3.23626 12.9761 3.68191 11.1442 4.54315C9.31224 5.40439 7.69335 6.65993 6.40333 8.2199C8.67648 7.22581 11.0856 7.26791 11.9405 7.28248L12.1429 7.28571C13.1143 7.28571 13.7619 7.93333 13.7619 8.90476C13.7619 9.87619 13.1143 10.5238 12.1429 10.5238C11.1714 10.5238 10.5238 11.1714 10.5238 12.1429C10.5238 13.1143 11.4952 13.7619 12.1429 13.7619H13.7619C14.6524 13.7619 15.381 14.4905 15.381 15.402C15.3754 15.8277 15.2024 16.2342 14.8994 16.5333C14.5963 16.8323 14.1877 17 13.7619 17C9.82762 17 10.0041 20.2381 10.5238 21.2775C11.4612 23.1524 14.7495 22.597 16.6924 21.2775L17.6476 20.5619C17.9911 20.3043 18.4229 20.1936 18.848 20.2544C19.2731 20.3151 19.6566 20.5422 19.9143 20.8857C20.1719 21.2292 20.2825 21.661 20.2218 22.0861C20.1611 22.5112 19.934 22.8947 19.5905 23.1524L18.734 23.7951C14.5714 26.7143 18.619 30.7619 24.1724 28.0047C26.7127 26.4828 27.6679 24.3877 27.8541 22.4789C27.9696 21.2314 27.7865 19.9744 27.3198 18.8117C26.8778 17.7156 26.2901 17.0275 25.8513 16.749C25.5551 16.5616 25.3278 16.2831 25.2034 15.9553C25.079 15.6276 25.0644 15.2684 25.1617 14.9316C25.259 14.5948 25.4629 14.2987 25.7429 14.0878C26.0229 13.8769 26.3638 13.7625 26.7143 13.7619C27.0543 13.7619 27.54 13.7619 28.1002 13.8574C28.0401 13.6853 27.9614 13.5203 27.8654 13.3652C27.3506 12.5136 26.2075 11.4596 24.263 10.2923C23.9599 10.11 23.7248 9.83341 23.5936 9.50484C23.4625 9.17627 23.4426 8.81381 23.537 8.47286C23.6314 8.13192 23.8348 7.83127 24.1162 7.61688C24.3976 7.4025 24.7415 7.28618 25.0952 7.28571C25.6214 7.28571 26.2318 7.31324 26.8794 7.41848Z" fill="white"/>
</svg>
