<svg width="16" height="16" viewBox="0 0 16 16" fill="none" xmlns="http://www.w3.org/2000/svg">
<path fill-rule="evenodd" clip-rule="evenodd" d="M3.52867 3.52866C3.65369 3.40368 3.82323 3.33347 4.00001 3.33347C4.17678 3.33347 4.34632 3.40368 4.47134 3.52866L8 7.05733L11.5287 3.52866C11.5902 3.46499 11.6637 3.4142 11.7451 3.37926C11.8264 3.34432 11.9139 3.32593 12.0024 3.32516C12.0909 3.32439 12.1787 3.34126 12.2606 3.37478C12.3426 3.4083 12.417 3.4578 12.4796 3.5204C12.5422 3.58299 12.5917 3.65743 12.6252 3.73936C12.6587 3.82129 12.6756 3.90907 12.6748 3.99759C12.6741 4.08611 12.6557 4.17359 12.6207 4.25493C12.5858 4.33627 12.535 4.40983 12.4713 4.47133L8.94267 7.99999L12.4713 11.5287C12.5928 11.6544 12.66 11.8228 12.6585 11.9976C12.6569 12.1724 12.5868 12.3396 12.4632 12.4632C12.3396 12.5868 12.1724 12.6569 11.9976 12.6584C11.8228 12.66 11.6544 12.5928 11.5287 12.4713L8 8.94266L4.47134 12.4713C4.3456 12.5928 4.1772 12.66 4.0024 12.6584C3.82761 12.6569 3.6604 12.5868 3.53679 12.4632C3.41319 12.3396 3.34307 12.1724 3.34156 11.9976C3.34004 11.8228 3.40723 11.6544 3.52867 11.5287L7.05734 7.99999L3.52867 4.47133C3.40369 4.34631 3.33348 4.17677 3.33348 3.99999C3.33348 3.82322 3.40369 3.65368 3.52867 3.52866Z" fill="white"/>
</svg>
