<svg width="50" height="60" viewBox="0 0 50 60" fill="none" xmlns="http://www.w3.org/2000/svg">
<path fill-rule="evenodd" clip-rule="evenodd" d="M16.3439 11.9376C21.7439 11.0201 28.2564 11.0201 33.6564 11.9376C38.5626 12.7726 42.3647 16.9026 43.0897 21.3526C43.971 26.7401 43.971 33.2601 43.0897 38.6476C42.3626 43.0976 38.5626 47.2276 33.6564 48.0626C28.2564 48.9801 21.7418 48.9801 16.3439 48.0626C11.4376 47.2276 7.63763 43.0976 6.91055 38.6476C6.0293 33.2601 6.0293 26.7401 6.91055 21.3526C7.63763 16.9026 11.4376 12.7726 16.3439 11.9376V11.9376ZM34.2397 6.98761C28.4543 6.00511 21.546 6.00511 15.7605 6.98761C9.4793 8.05511 3.95846 13.4326 2.82305 20.3926C1.83763 26.4151 1.83763 33.5851 2.82305 39.6076C3.95846 46.5676 9.4793 51.9451 15.7605 53.0126C21.546 53.9951 28.4543 53.9951 34.2397 53.0126C40.521 51.9451 46.0418 46.5676 47.1772 39.6076C48.1626 33.5851 48.1626 26.4151 47.1772 20.3926C46.0418 13.4326 40.521 8.05511 34.2397 6.98761V6.98761ZM21.9897 17.9201C21.676 17.6689 21.3113 17.5246 20.9345 17.5027C20.5578 17.4807 20.1832 17.5819 19.8506 17.7954C19.5181 18.0089 19.24 18.3268 19.0462 18.7151C18.8524 19.1034 18.7501 19.5475 18.7501 20.0001V40.0001C18.7501 40.4527 18.8524 40.8969 19.0462 41.2851C19.24 41.6734 19.5181 41.9913 19.8506 42.2048C20.1832 42.4183 20.5578 42.5195 20.9345 42.4975C21.3113 42.4756 21.676 42.3313 21.9897 42.0801L34.4897 32.0801C34.775 31.8518 35.009 31.5425 35.1708 31.1797C35.3326 30.8168 35.4173 30.4116 35.4173 30.0001C35.4173 29.5886 35.3326 29.1834 35.1708 28.8206C35.009 28.4577 34.775 28.1484 34.4897 27.9201L21.9897 17.9201ZM29.5772 30.0001L22.9168 35.3301V24.6726L29.5772 30.0001Z" fill="white"/>
</svg>
