<svg width="38" height="40" viewBox="0 0 38 40" fill="none" xmlns="http://www.w3.org/2000/svg">
<path fill-rule="evenodd" clip-rule="evenodd" d="M15.8333 8.33331C13.7337 8.33331 11.7201 9.21129 10.2354 10.7741C8.75074 12.3369 7.91667 14.4565 7.91667 16.6666C7.91667 18.8768 8.75074 20.9964 10.2354 22.5592C11.7201 24.122 13.7337 25 15.8333 25C17.933 25 19.9466 24.122 21.4313 22.5592C22.9159 20.9964 23.75 18.8768 23.75 16.6666C23.75 14.4565 22.9159 12.3369 21.4313 10.7741C19.9466 9.21129 17.933 8.33331 15.8333 8.33331ZM4.75 16.6666C4.75 14.8187 5.16701 12.9973 5.96668 11.3522C6.76636 9.70719 7.92582 8.28563 9.34959 7.20461C10.7734 6.12359 12.4207 5.41403 14.156 5.13438C15.8913 4.85472 17.6649 5.01296 19.3307 5.59606C20.9965 6.17917 22.5069 7.17046 23.7375 8.48831C24.9681 9.80615 25.8837 11.4129 26.409 13.1761C26.9342 14.9394 27.054 16.8087 26.7586 18.6303C26.4631 20.4518 25.7608 22.1734 24.7095 23.6533L32.7861 32.1533C33.0832 32.4658 33.2502 32.8898 33.2503 33.3319C33.2505 33.774 33.0838 34.1981 32.7869 34.5108C32.49 34.8235 32.0872 34.9993 31.6672 34.9995C31.2472 34.9996 30.8443 34.8242 30.5472 34.5116L22.4722 26.0116C20.8248 27.3089 18.8669 28.0978 16.8176 28.2901C14.7684 28.4825 12.7088 28.0706 10.8693 27.1006C9.02981 26.1307 7.48312 24.6409 6.40237 22.7981C5.32163 20.9554 4.74948 18.8323 4.75 16.6666Z" fill="white"/>
</svg>
